<?xml version="1.0" encoding="UTF-8" standalone="no"?>
<svg
   xmlns:sketch="http://www.bohemiancoding.com/sketch/ns"
   xmlns:dc="http://purl.org/dc/elements/1.1/"
   xmlns:cc="http://creativecommons.org/ns#"
   xmlns:rdf="http://www.w3.org/1999/02/22-rdf-syntax-ns#"
   xmlns:svg="http://www.w3.org/2000/svg"
   xmlns="http://www.w3.org/2000/svg"
   xmlns:sodipodi="http://sodipodi.sourceforge.net/DTD/sodipodi-0.dtd"
   xmlns:inkscape="http://www.inkscape.org/namespaces/inkscape"
   width="323px"
   height="323px"
   viewBox="0 0 323 323"
   version="1.1"
   id="svg2"
   inkscape:version="0.91 r13725"
   sodipodi:docname="prototyping.svg">
  <metadata
     id="metadata22">
    <rdf:RDF>
      <cc:Work
         rdf:about="">
        <dc:format>image/svg+xml</dc:format>
        <dc:type
           rdf:resource="http://purl.org/dc/dcmitype/StillImage" />
      </cc:Work>
    </rdf:RDF>
  </metadata>
  <sodipodi:namedview
     pagecolor="#ffffff"
     bordercolor="#666666"
     borderopacity="1"
     objecttolerance="10"
     gridtolerance="10"
     guidetolerance="10"
     inkscape:pageopacity="0"
     inkscape:pageshadow="2"
     inkscape:window-width="1288"
     inkscape:window-height="739"
     id="namedview20"
     showgrid="false"
     inkscape:zoom="0.73065015"
     inkscape:cx="-69.116525"
     inkscape:cy="161.5"
     inkscape:window-x="69"
     inkscape:window-y="-9"
     inkscape:window-maximized="1"
     inkscape:current-layer="Page-1" />
  <!-- Generator: Sketch 3.4.3 (16044) - http://www.bohemiancoding.com/sketch -->
  <title
     id="title4">prototyping</title>
  <desc
     id="desc6">Created with Sketch.</desc>
  <defs
     id="defs8" />
  <g
     id="Page-1"
     stroke="none"
     stroke-width="1"
     fill="none"
     fill-rule="evenodd"
     sketch:type="MSPage">
    <g
       id="prototyping"
       sketch:type="MSLayerGroup"
       style="fill:#5599ff">
      <g
         id="g12"
         sketch:type="MSShapeGroup"
         style="fill:#5599ff">
        <g
           id="Artboard-1"
           style="fill:#5599ff">
          <g
             id="g15"
             style="fill:#5599ff">
            <circle
               id="Oval-1"
               fill-opacity="0.01"
               fill="#FFFFFF"
               cx="161.5"
               cy="161.5"
               r="161.5"
               style="fill:#5599ff" />
            <g
               id="tools6"
               transform="translate(46.000000, 38.000000)"
               fill="#F3E221"
               style="fill:#5599ff">
              <path
                 d="M224.776842,208.142452 L145.356719,128.85746 C144.612916,128.111888 143.817446,127.450575 142.998444,126.831648 L157.064705,112.045823 C157.783953,111.322719 158.464323,110.562338 159.090468,109.780508 C177.764827,116.812379 199.677338,112.859313 214.68742,97.8773923 C225.635746,86.9445425 231.156973,71.8267842 229.820787,56.3980302 C229.676017,54.6520628 228.517342,53.1425341 226.869619,52.5465867 C225.218317,51.9445113 223.368017,52.3550869 222.125446,53.5908988 L196.671945,78.9985783 L170.901278,72.51363 L163.592674,45.9758464 L189.040038,20.5712306 C190.288747,19.3287802 190.696968,17.480169 190.095379,15.8337816 C189.496346,14.1827982 187.984697,13.0358422 186.230571,12.8821317 C170.776458,11.5523572 155.631325,17.0609121 144.678907,27.9937621 C129.681613,42.9649593 125.711425,64.827595 132.747881,83.4617998 C131.982593,84.1077925 131.220886,84.7946383 130.474014,85.5294868 L109.770822,105.378566 L71.7524766,67.4299492 C71.2777524,66.9545192 70.7713117,66.5362836 70.2495244,66.1435814 C70.6956014,65.3622624 71.1294011,64.5579633 71.5345535,63.7230242 C79.5639398,65.2657464 94.2425337,49.657238 106.709158,37.2169018 L70.3907139,0.957568283 C54.1503389,17.1722373 42.2914429,28.0540206 43.8307154,36.0694352 C40.1178405,37.8802572 36.8080717,40.0945053 34.4559364,42.4456117 L29.3398628,47.5512511 C26.0183283,50.8716019 24.0150742,55.0008479 23.2999187,59.30372 C22.8037091,59.8695381 22.298803,60.4654854 21.7969665,61.1027966 L19.8903964,63.4947565 C19.8371947,63.5534832 19.672985,63.7889001 19.6274566,63.8491588 L17.8994197,66.2640986 C16.8185014,67.7036662 15.8736571,69.2673257 14.9600177,70.7763441 C14.6229022,71.3365447 14.2796479,71.8977668 13.9292319,72.4574567 C13.8734723,72.5539727 13.8187358,72.6489565 13.7691148,72.744451 L13.001269,74.1886148 C12.073306,75.9259006 11.1100457,77.7244665 10.2859286,79.7032977 L10.152924,80.0183785 C9.1809672,82.3230145 8.17371303,84.7093571 7.47083481,87.2386861 L7.13064992,88.3330436 C6.85236334,89.2328371 6.56947275,90.1305881 6.3096022,91.2034976 L5.60365463,94.6928788 C5.0772633,96.8749548 4.90026484,99.0274123 4.74628642,100.933729 L4.64346363,102.186393 C4.38359308,104.163181 4.4593034,106.027112 4.52989814,107.671968 C4.55394129,108.222976 4.57542665,108.763261 4.59179644,109.491981 C4.61021248,109.795317 4.61328182,110.090993 4.62248982,110.382583 C4.64039429,111.117432 4.66034499,111.952371 4.80255761,112.830206 L5.24556528,115.661849 C5.34071474,116.209283 5.42102907,116.740886 5.49673939,117.250531 C5.66606449,118.400551 5.83999359,119.589892 6.18324782,120.718975 L8.04121997,127.154389 C8.61416293,129.11024 10.4752044,130.405289 12.5117097,130.263324 C13.5895586,130.188256 14.5584461,129.723039 15.2797403,129.001468 C15.9237896,128.358539 16.3698666,127.513387 16.5059406,126.559973 L17.4692009,120.01732 C17.5403072,119.497972 17.7638573,118.737591 17.9950807,117.932781 C18.1598018,117.374623 18.3199189,116.80523 18.4437155,116.319587 L19.1286892,113.877582 C19.2120729,113.547181 19.3737247,113.225461 19.5159374,112.89506 C19.6520112,112.58866 19.7880853,112.273069 19.9093241,111.962073 C20.1390128,111.442726 20.355401,110.923889 20.5682084,110.391264 C20.9902422,109.346952 21.3892561,108.364431 21.9985197,107.399783 C22.2635056,106.954482 22.5095642,106.512245 22.7607383,106.060816 C23.3955795,104.926116 23.9987043,103.854739 24.7153947,102.96669 C24.7604115,102.914092 24.801336,102.855365 24.8483993,102.793064 L26.4644053,100.568603 C26.7953822,100.150367 27.1672836,99.7551116 27.5289537,99.356792 C27.7857549,99.0759256 28.0430678,98.7935273 28.3679059,98.4222731 C29.3219583,97.276849 30.4422663,96.2779863 31.5231846,95.294954 L32.1022663,94.7756066 C32.9033633,94.0330981 33.8303031,93.3345069 34.8053293,92.5960838 C35.2043431,92.2983656 35.5946605,92.0026899 35.9783277,91.7116102 C36.4709562,91.3929546 36.9477268,91.0748096 37.4173354,90.759218 C38.297212,90.165824 39.0589192,89.6526046 39.9393073,89.1955585 L41.8550854,88.1073291 L43.7933719,87.1585116 C44.4691376,86.8097266 45.1346722,86.5411162 45.7480281,86.2939539 C46.1122562,86.1427968 46.4723917,85.9962355 46.8064379,85.8517171 C47.1466228,85.7342638 47.4745304,85.6071079 47.7845335,85.4927189 C48.199917,85.3415617 48.558518,85.1965326 49.0455194,85.0698874 L49.5683299,84.9524341 C50.1382035,85.873165 50.8062959,86.7484466 51.6079046,87.5481497 L89.2149592,125.091298 L8.93235089,202.069101 C8.90063441,202.099231 8.87045259,202.132425 8.84129388,202.16 C-1.14888733,212.132798 -2.77563608,226.738869 7.21607981,236.714731 C17.2077957,246.687529 30.9093172,244.130623 40.8969407,234.1614 C40.9409345,234.119015 40.9787897,234.079694 41.0176678,234.034243 L111.841602,159.588323 C112.256986,160.07703 112.668277,160.568802 113.1297,161.030444 L192.543686,240.312884 C201.442718,249.198984 215.8773,249.198984 224.776331,240.312884 C233.672805,231.4324 233.672805,217.022425 224.776842,208.142452 L224.776842,208.142452 L224.776842,208.142452 Z M30.5323002,225.938655 C26.8536995,229.61494 20.8869079,229.61494 17.2052379,225.938655 C13.5271488,222.265435 13.5271488,216.312599 17.2052379,212.639379 C20.8833271,208.968711 26.8506302,208.966158 30.5323002,212.639379 C34.2073201,216.31311 34.2073201,222.265435 30.5323002,225.938655 L30.5323002,225.938655 L30.5323002,225.938655 Z"
                 id="Shape"
                 style="fill:#5599ff" />
            </g>
          </g>
        </g>
      </g>
    </g>
  </g>
</svg>
